<svg width="61" height="60" viewBox="0 0 61 60" fill="none" xmlns="http://www.w3.org/2000/svg">
<path d="M48 46.0625L44.5 49.5C44.0417 49.9583 43.4692 50.1983 42.7825 50.22C42.0958 50.2417 41.5017 50.0017 41 49.5C40.5417 49.0417 40.3125 48.4583 40.3125 47.75C40.3125 47.0417 40.5417 46.4583 41 46L44.5 42.5L41 39C40.5417 38.5417 40.3125 37.9583 40.3125 37.25C40.3125 36.5417 40.5417 35.9583 41 35.5C41.4583 35.0417 42.0417 34.8125 42.75 34.8125C43.4583 34.8125 44.0417 35.0417 44.5 35.5L48 39L51.5 35.5C51.9583 35.0417 52.5308 34.8125 53.2175 34.8125C53.9042 34.8125 54.4983 35.0417 55 35.5C55.5 36 55.75 36.5942 55.75 37.2825C55.75 37.9708 55.5 38.5642 55 39.0625L51.5625 42.5L55 46C55.4583 46.4583 55.6983 47.0317 55.72 47.72C55.7417 48.4083 55.5017 49.0017 55 49.5C54.5417 49.9583 53.9583 50.1875 53.25 50.1875C52.5417 50.1875 51.9583 49.9583 51.5 49.5L48 46.0625ZM48.5625 27.3125H48.0625C43.8542 27.3125 40.2708 28.7917 37.3125 31.75C34.3542 34.7083 32.875 38.2917 32.875 42.5V43C32.9167 43.75 33 44.5108 33.125 45.2825C33.25 46.0542 33.4375 46.7933 33.6875 47.5C33.8125 47.9167 33.8442 48.3233 33.7825 48.72C33.7208 49.1167 33.5433 49.46 33.25 49.75C32.875 50.125 32.4483 50.4067 31.97 50.595C31.4917 50.7833 31.0017 50.8767 30.5 50.875C30 50.875 29.5108 50.7817 29.0325 50.595C28.5542 50.4083 28.1267 50.1267 27.75 49.75L4.4375 26.4375C3.89583 25.8958 3.5 25.3125 3.25 24.6875C3 24.0625 2.875 23.3958 2.875 22.6875C2.875 21.9792 3.02083 21.2708 3.3125 20.5625C3.60417 19.8542 4.0625 19.25 4.6875 18.75C8.35417 15.875 12.3958 13.6983 16.8125 12.22C21.2292 10.7417 25.7917 10.0017 30.5 10C35.2083 10 39.7708 10.74 44.1875 12.22C48.6042 13.7 52.6458 15.8767 56.3125 18.75C56.9375 19.2083 57.3958 19.7917 57.6875 20.5C57.9792 21.2083 58.125 21.9167 58.125 22.625C58.125 23.3333 58 24.01 57.75 24.655C57.5 25.3 57.1042 25.8942 56.5625 26.4375L55.3125 27.6875C54.9792 28.0208 54.625 28.2192 54.25 28.2825C53.875 28.3458 53.4792 28.2933 53.0625 28.125C52.3542 27.875 51.625 27.6875 50.875 27.5625C50.125 27.4375 49.3542 27.3542 48.5625 27.3125Z" fill="white"/>
<path d="M48 46.0625L44.5 49.5C44.0417 49.9583 43.4692 50.1983 42.7825 50.22C42.0958 50.2417 41.5017 50.0017 41 49.5C40.5417 49.0417 40.3125 48.4583 40.3125 47.75C40.3125 47.0417 40.5417 46.4583 41 46L44.5 42.5L41 39C40.5417 38.5417 40.3125 37.9583 40.3125 37.25C40.3125 36.5417 40.5417 35.9583 41 35.5C41.4583 35.0417 42.0417 34.8125 42.75 34.8125C43.4583 34.8125 44.0417 35.0417 44.5 35.5L48 39L51.5 35.5C51.9583 35.0417 52.5308 34.8125 53.2175 34.8125C53.9042 34.8125 54.4983 35.0417 55 35.5C55.5 36 55.75 36.5942 55.75 37.2825C55.75 37.9708 55.5 38.5642 55 39.0625L51.5625 42.5L55 46C55.4583 46.4583 55.6983 47.0317 55.72 47.72C55.7417 48.4083 55.5017 49.0017 55 49.5C54.5417 49.9583 53.9583 50.1875 53.25 50.1875C52.5417 50.1875 51.9583 49.9583 51.5 49.5L48 46.0625ZM48.5625 27.3125H48.0625C43.8542 27.3125 40.2708 28.7917 37.3125 31.75C34.3542 34.7083 32.875 38.2917 32.875 42.5V43C32.9167 43.75 33 44.5108 33.125 45.2825C33.25 46.0542 33.4375 46.7933 33.6875 47.5C33.8125 47.9167 33.8442 48.3233 33.7825 48.72C33.7208 49.1167 33.5433 49.46 33.25 49.75C32.875 50.125 32.4483 50.4067 31.97 50.595C31.4917 50.7833 31.0017 50.8767 30.5 50.875C30 50.875 29.5108 50.7817 29.0325 50.595C28.5542 50.4083 28.1267 50.1267 27.75 49.75L4.4375 26.4375C3.89583 25.8958 3.5 25.3125 3.25 24.6875C3 24.0625 2.875 23.3958 2.875 22.6875C2.875 21.9792 3.02083 21.2708 3.3125 20.5625C3.60417 19.8542 4.0625 19.25 4.6875 18.75C8.35417 15.875 12.3958 13.6983 16.8125 12.22C21.2292 10.7417 25.7917 10.0017 30.5 10C35.2083 10 39.7708 10.74 44.1875 12.22C48.6042 13.7 52.6458 15.8767 56.3125 18.75C56.9375 19.2083 57.3958 19.7917 57.6875 20.5C57.9792 21.2083 58.125 21.9167 58.125 22.625C58.125 23.3333 58 24.01 57.75 24.655C57.5 25.3 57.1042 25.8942 56.5625 26.4375L55.3125 27.6875C54.9792 28.0208 54.625 28.2192 54.25 28.2825C53.875 28.3458 53.4792 28.2933 53.0625 28.125C52.3542 27.875 51.625 27.6875 50.875 27.5625C50.125 27.4375 49.3542 27.3542 48.5625 27.3125Z" fill="url(#paint0_linear_1509_820)"/>
<defs>
<linearGradient id="paint0_linear_1509_820" x1="30.5" y1="10" x2="30.5" y2="50.875" gradientUnits="userSpaceOnUse">
<stop stop-color="#CE4A05" stop-opacity="0.4"/>
<stop offset="1" stop-color="#CE4A05"/>
</linearGradient>
</defs>
</svg>
