<svg width="20" height="20" viewBox="0 0 20 20" fill="none" xmlns="http://www.w3.org/2000/svg">
<path d="M5.8333 16.6664V7.47889C5.8333 7.02056 5.99997 6.63167 6.3333 6.31223C6.66664 5.99278 7.06247 5.83306 7.5208 5.83306H16.6666C17.125 5.83306 17.5175 5.99612 17.8441 6.32223C18.1708 6.64834 18.3339 7.04084 18.3333 7.49973V14.1664L14.1666 18.3331H7.49997C7.04164 18.3331 6.64942 18.17 6.3233 17.8439C5.99719 17.5178 5.83386 17.1253 5.8333 16.6664ZM1.68747 5.20806C1.60414 4.74973 1.69442 4.33667 1.9583 3.96889C2.22219 3.60112 2.5833 3.37528 3.04164 3.29139L12.0833 1.68723C12.5416 1.60389 12.955 1.69417 13.3233 1.95806C13.6916 2.22195 13.9172 2.58306 14 3.04139L14.2083 4.16639H7.49997C6.5833 4.16639 5.79858 4.49278 5.1458 5.14556C4.49303 5.79834 4.16664 6.58306 4.16664 7.49973V15.4581C3.94442 15.3331 3.75358 15.1664 3.59414 14.9581C3.43469 14.7497 3.33386 14.5136 3.29164 14.2497L1.68747 5.20806ZM16.6666 13.3331H14.1666C13.9305 13.3331 13.7327 13.4131 13.5733 13.5731C13.4139 13.7331 13.3339 13.9308 13.3333 14.1664V16.6664L16.6666 13.3331Z" fill="#787878"/>
</svg>
