<svg width="20" height="20" viewBox="0 0 20 20" fill="none" xmlns="http://www.w3.org/2000/svg">
<path d="M6.66667 13.3333V14.375C6.66667 14.5556 6.72583 14.705 6.84417 14.8233C6.9625 14.9417 7.11167 15.0006 7.29167 15C7.47222 15 7.62167 14.9408 7.74 14.8225C7.85833 14.7042 7.91722 14.555 7.91667 14.375V13.3333H8.95833C9.13889 13.3333 9.28833 13.2742 9.40667 13.1558C9.525 13.0375 9.58389 12.8883 9.58333 12.7083C9.58333 12.5278 9.52417 12.3786 9.40583 12.2608C9.2875 12.1431 9.13833 12.0839 8.95833 12.0833H7.91667V11.0417C7.91667 10.8611 7.8575 10.7119 7.73917 10.5942C7.62083 10.4764 7.47167 10.4172 7.29167 10.4167C7.11111 10.4167 6.96194 10.4758 6.84417 10.5942C6.72639 10.7125 6.66722 10.8617 6.66667 11.0417V12.0833H5.625C5.44444 12.0833 5.29528 12.1425 5.1775 12.2608C5.05972 12.3792 5.00056 12.5283 5 12.7083C5 12.8889 5.05917 13.0383 5.1775 13.1567C5.29583 13.275 5.445 13.3339 5.625 13.3333H6.66667ZM11.4583 14.375H14.375C14.5556 14.375 14.705 14.3158 14.8233 14.1975C14.9417 14.0792 15.0006 13.93 15 13.75C15 13.5694 14.9408 13.4203 14.8225 13.3025C14.7042 13.1847 14.555 13.1256 14.375 13.125H11.4583C11.2778 13.125 11.1286 13.1842 11.0108 13.3025C10.8931 13.4208 10.8339 13.57 10.8333 13.75C10.8333 13.9306 10.8925 14.08 11.0108 14.1983C11.1292 14.3167 11.2783 14.3756 11.4583 14.375ZM11.4583 12.2917H14.375C14.5556 12.2917 14.705 12.2325 14.8233 12.1142C14.9417 11.9958 15.0006 11.8467 15 11.6667C15 11.4861 14.9408 11.3369 14.8225 11.2192C14.7042 11.1014 14.555 11.0422 14.375 11.0417H11.4583C11.2778 11.0417 11.1286 11.1008 11.0108 11.2192C10.8931 11.3375 10.8339 11.4867 10.8333 11.6667C10.8333 11.8472 10.8925 11.9967 11.0108 12.115C11.1292 12.2333 11.2783 12.2922 11.4583 12.2917ZM12.9167 7.95833L13.6458 8.6875C13.7708 8.8125 13.9167 8.875 14.0833 8.875C14.25 8.875 14.3958 8.8125 14.5208 8.6875C14.6319 8.57639 14.6908 8.43389 14.6975 8.26C14.7042 8.08611 14.6522 7.93694 14.5417 7.8125L13.7917 7.04167L14.5208 6.3125C14.6458 6.1875 14.7083 6.04167 14.7083 5.875C14.7083 5.70833 14.6458 5.5625 14.5208 5.4375C14.3958 5.3125 14.25 5.25 14.0833 5.25C13.9167 5.25 13.7708 5.3125 13.6458 5.4375L12.9167 6.16667L12.1875 5.4375C12.0625 5.3125 11.9167 5.25 11.75 5.25C11.5833 5.25 11.4375 5.3125 11.3125 5.4375C11.1875 5.5625 11.125 5.70833 11.125 5.875C11.125 6.04167 11.1875 6.1875 11.3125 6.3125L12.0417 7.04167L11.2917 7.8125C11.1806 7.9375 11.125 8.08333 11.125 8.25C11.125 8.41667 11.1875 8.5625 11.3125 8.6875C11.4375 8.8125 11.5833 8.875 11.75 8.875C11.9167 8.875 12.0625 8.8125 12.1875 8.6875L12.9167 7.95833ZM5.83333 7.66667H8.75C8.93056 7.66667 9.08 7.60778 9.19833 7.49C9.31667 7.37222 9.37556 7.22278 9.375 7.04167C9.375 6.86111 9.31583 6.71194 9.1975 6.59417C9.07917 6.47639 8.93 6.41722 8.75 6.41667H5.83333C5.65278 6.41667 5.50361 6.47583 5.38583 6.59417C5.26806 6.7125 5.20889 6.86167 5.20833 7.04167C5.20833 7.22222 5.2675 7.37167 5.38583 7.49C5.50417 7.60833 5.65333 7.66722 5.83333 7.66667ZM4.16667 17.5C3.70833 17.5 3.31611 17.3369 2.99 17.0108C2.66389 16.6847 2.50056 16.2922 2.5 15.8333V4.16667C2.5 3.70833 2.66333 3.31611 2.99 2.99C3.31667 2.66389 3.70889 2.50056 4.16667 2.5H15.8333C16.2917 2.5 16.6842 2.66333 17.0108 2.99C17.3375 3.31667 17.5006 3.70889 17.5 4.16667V15.8333C17.5 16.2917 17.3369 16.6842 17.0108 17.0108C16.6847 17.3375 16.2922 17.5006 15.8333 17.5H4.16667Z" fill="#787878"/>
</svg>
