<svg width="20" height="20" viewBox="0 0 20 20" fill="none" xmlns="http://www.w3.org/2000/svg">
<path d="M6.28102 9.3057H7.84227C8.30264 9.3057 8.64959 9.21164 8.88311 9.02351C9.1233 8.82866 9.24339 8.53975 9.24339 8.15677C9.24339 7.78051 9.1233 7.49832 8.88311 7.31019C8.64959 7.11534 8.30264 7.01791 7.84227 7.01791H6.28102V9.3057Z" fill="#787878"/>
<path d="M13.498 12.2486C13.7449 12.2486 13.9617 12.1881 14.1485 12.0672C14.3353 11.9463 14.4788 11.7682 14.5789 11.533C14.6856 11.2912 14.739 10.9922 14.739 10.6361C14.739 10.0986 14.6256 9.69878 14.3987 9.43674C14.1719 9.16799 13.8716 9.03361 13.498 9.03361C13.2511 9.03361 13.0343 9.09408 12.8475 9.21502C12.6607 9.32924 12.5139 9.50729 12.4071 9.74917C12.307 9.98434 12.257 10.28 12.257 10.6361C12.257 11.1669 12.3704 11.57 12.5973 11.8455C12.8241 12.1142 13.1244 12.2486 13.498 12.2486Z" fill="#787878"/>
<path fill-rule="evenodd" clip-rule="evenodd" d="M9.99935 18.3337C8.84657 18.3337 7.76324 18.1148 6.74935 17.677C5.73546 17.2392 4.85352 16.6456 4.10352 15.8962C3.35352 15.1467 2.75991 14.2648 2.32269 13.2503C1.88546 12.2359 1.66657 11.1525 1.66602 10.0003C1.66546 8.8481 1.88435 7.76477 2.32269 6.75033C2.76102 5.73588 3.35463 4.85394 4.10352 4.10449C4.85241 3.35505 5.73435 2.76144 6.74935 2.32366C7.76435 1.88588 8.84768 1.66699 9.99935 1.66699C11.151 1.66699 12.2344 1.88588 13.2494 2.32366C14.2644 2.76144 15.1463 3.35505 15.8952 4.10449C16.6441 4.85394 17.238 5.73588 17.6769 6.75033C18.1157 7.76477 18.3344 8.8481 18.3327 10.0003C18.331 11.1525 18.1121 12.2359 17.676 13.2503C17.2399 14.2648 16.6463 15.1467 15.8952 15.8962C15.1441 16.6456 14.2621 17.2395 13.2494 17.6778C12.2366 18.1162 11.1532 18.3348 9.99935 18.3337ZM5.64051 13.1859C5.43368 13.1859 5.27355 13.1288 5.16013 13.0145C5.05338 12.8936 5 12.729 5 12.5207V6.65509C5 6.44009 5.05671 6.27883 5.17014 6.17133C5.28356 6.05711 5.44369 6 5.65052 6H8.06245C8.8364 6 9.43355 6.18813 9.85388 6.56439C10.2742 6.93393 10.4844 7.45464 10.4844 8.12653C10.4844 8.56326 10.3876 8.93952 10.1942 9.25531C10.0073 9.5711 9.73379 9.81298 9.3735 9.98095C9.22856 10.0485 9.0712 10.1025 8.90143 10.1429C9.00614 10.1761 9.10345 10.2229 9.19335 10.2833C9.40019 10.4177 9.58033 10.6293 9.73379 10.9182L10.4844 12.3191C10.5645 12.4602 10.6011 12.598 10.5945 12.7323C10.5878 12.8667 10.5378 12.9776 10.4444 13.0649C10.3509 13.1456 10.2142 13.1859 10.034 13.1859C9.85388 13.1859 9.7071 13.1489 9.59367 13.075C9.48025 12.9944 9.38017 12.8734 9.29343 12.7122L8.28263 10.8376C8.16253 10.6092 8.01908 10.458 7.85228 10.3841C7.69215 10.3035 7.48532 10.2631 7.23179 10.2631H6.28102V12.5207C6.28102 12.729 6.22765 12.8936 6.1209 13.0145C6.01414 13.1288 5.85402 13.1859 5.64051 13.1859ZM11.6465 15C11.4464 15 11.2929 14.9462 11.1862 14.8387C11.0794 14.7312 11.026 14.5733 11.026 14.3651V8.73126C11.026 8.52297 11.0794 8.36508 11.1862 8.25758C11.2929 8.15007 11.443 8.09632 11.6365 8.09632C11.8367 8.09632 11.9901 8.15007 12.0969 8.25758C12.2036 8.36508 12.257 8.52297 12.257 8.73126V8.93972C12.3707 8.72153 12.5375 8.53782 12.7574 8.3886C13.071 8.18031 13.4346 8.07617 13.8483 8.07617C14.2753 8.07617 14.6489 8.18031 14.9692 8.3886C15.2961 8.59688 15.5496 8.89251 15.7298 9.27549C15.9099 9.65175 16 10.1053 16 10.6361C16 11.1601 15.9099 11.617 15.7298 12.0067C15.5496 12.3897 15.2994 12.6853 14.9792 12.8936C14.6589 13.1019 14.282 13.2061 13.8483 13.2061C13.4413 13.2061 13.0843 13.1053 12.7774 12.9037C12.5607 12.7566 12.3939 12.5795 12.277 12.3721V14.3651C12.277 14.5733 12.2203 14.7312 12.1069 14.8387C12.0001 14.9462 11.8467 15 11.6465 15Z" fill="#787878"/>
</svg>
