<svg width="20" height="20" viewBox="0 0 20 20" fill="none" xmlns="http://www.w3.org/2000/svg">
<path d="M4.16667 18.3337C3.70833 18.3337 3.31611 18.1706 2.99 17.8445C2.66389 17.5184 2.50056 17.1259 2.5 16.667V5.00033C2.5 4.54199 2.66333 4.14977 2.99 3.82366C3.31667 3.49755 3.70889 3.33421 4.16667 3.33366H5V2.50033C5 2.26421 5.08 2.06644 5.24 1.90699C5.4 1.74755 5.59778 1.66755 5.83333 1.66699C6.06944 1.66699 6.2675 1.74699 6.4275 1.90699C6.5875 2.06699 6.66722 2.26477 6.66667 2.50033V3.33366H13.3333V2.50033C13.3333 2.26421 13.4133 2.06644 13.5733 1.90699C13.7333 1.74755 13.9311 1.66755 14.1667 1.66699C14.4028 1.66699 14.6008 1.74699 14.7608 1.90699C14.9208 2.06699 15.0006 2.26477 15 2.50033V3.33366H15.8333C16.2917 3.33366 16.6842 3.49699 17.0108 3.82366C17.3375 4.15033 17.5006 4.54255 17.5 5.00033V8.89616C17.5 9.13227 17.42 9.33033 17.26 9.49032C17.1 9.65032 16.9022 9.73005 16.6667 9.72949C16.4306 9.72949 16.2328 9.64949 16.0733 9.48949C15.9139 9.32949 15.8339 9.13199 15.8333 8.89699V8.33366H4.16667V16.667H9C9.23611 16.667 9.43417 16.747 9.59417 16.907C9.75417 17.067 9.83389 17.2648 9.83333 17.5003C9.83333 17.7364 9.75333 17.9345 9.59333 18.0945C9.43333 18.2545 9.23556 18.3342 9 18.3337H4.16667ZM15 19.167C13.8472 19.167 12.8647 18.7606 12.0525 17.9478C11.2403 17.135 10.8339 16.1525 10.8333 15.0003C10.8333 13.8475 11.2397 12.865 12.0525 12.0528C12.8653 11.2406 13.8478 10.8342 15 10.8337C16.1528 10.8337 17.1356 11.24 17.9483 12.0528C18.7611 12.8656 19.1672 13.8481 19.1667 15.0003C19.1667 16.1531 18.7603 17.1359 17.9475 17.9487C17.1347 18.7614 16.1522 19.1675 15 19.167ZM15.4167 14.8337V12.917C15.4167 12.8059 15.375 12.7087 15.2917 12.6253C15.2083 12.542 15.1111 12.5003 15 12.5003C14.8889 12.5003 14.7917 12.542 14.7083 12.6253C14.625 12.7087 14.5833 12.8059 14.5833 12.917V14.8128C14.5833 14.9239 14.6042 15.0317 14.6458 15.1362C14.6875 15.2406 14.75 15.3342 14.8333 15.417L16.1042 16.6878C16.1875 16.7712 16.2847 16.8128 16.3958 16.8128C16.5069 16.8128 16.6042 16.7712 16.6875 16.6878C16.7708 16.6045 16.8125 16.5073 16.8125 16.3962C16.8125 16.285 16.7708 16.1878 16.6875 16.1045L15.4167 14.8337Z" fill="#787878"/>
</svg>
