<svg width="40" height="40" viewBox="0 0 40 40" fill="none" xmlns="http://www.w3.org/2000/svg">
<path d="M20 1.25C9.64466 1.25 1.25 9.64466 1.25 20C1.25 30.3553 9.64466 38.75 20 38.75C30.3553 38.75 38.75 30.3553 38.75 20C38.75 9.64466 30.3553 1.25 20 1.25Z" fill="url(#paint0_linear_138_1452)"/>
<path d="M20 1.25C9.64466 1.25 1.25 9.64466 1.25 20C1.25 30.3553 9.64466 38.75 20 38.75C30.3553 38.75 38.75 30.3553 38.75 20C38.75 9.64466 30.3553 1.25 20 1.25Z" stroke="white" stroke-width="1.5"/>
<path fill-rule="evenodd" clip-rule="evenodd" d="M16.6668 28.3337C15.7502 28.3337 14.9654 28.0073 14.3127 27.3545C13.6599 26.7017 13.3335 25.917 13.3335 25.0003V16.667C13.3335 15.7503 13.6599 14.9656 14.3127 14.3128C14.9654 13.66 15.7502 13.3337 16.6668 13.3337H17.5002V12.5003C17.5002 12.2642 17.5802 12.0664 17.7402 11.907C17.9002 11.7475 18.0979 11.6675 18.3335 11.667C18.5696 11.667 18.7677 11.747 18.9277 11.907C19.0877 12.067 19.1674 12.2648 19.1668 12.5003V13.3337H20.8335V12.5003C20.8335 12.2642 20.9135 12.0664 21.0735 11.907C21.2335 11.7475 21.4313 11.6675 21.6668 11.667C21.9029 11.667 22.101 11.747 22.261 11.907C22.421 12.067 22.5007 12.2648 22.5002 12.5003V13.3337H23.3335C24.2502 13.3337 25.0349 13.66 25.6877 14.3128C26.3404 14.9656 26.6668 15.7503 26.6668 16.667V25.0003C26.6668 25.917 26.3404 26.7017 25.6877 27.3545C25.0349 28.0073 24.2502 28.3337 23.3335 28.3337H16.6668ZM17.5002 18.3337H22.5002C22.7363 18.3337 22.9343 18.2537 23.0943 18.0937C23.2543 17.9337 23.3341 17.7359 23.3335 17.5003C23.3335 17.2642 23.2535 17.0664 23.0935 16.907C22.9335 16.7475 22.7357 16.6675 22.5002 16.667H17.5002C17.2641 16.667 17.0663 16.747 16.9068 16.907C16.7474 17.067 16.6674 17.2648 16.6668 17.5003C16.6668 17.7364 16.7468 17.9345 16.9068 18.0945C17.0668 18.2545 17.2646 18.3342 17.5002 18.3337ZM20 20C18.2453 21.4729 17 23.2118 17 24.3692C17 25.0867 17.1939 25.7185 17.538 26.2199C17.5131 26.0843 17.5002 25.9426 17.5002 25.7957C17.5002 25 18.4341 23.8045 19.7502 22.7919C21.0603 23.8005 22.0002 24.997 22.0002 25.7957C22.0002 26.2571 21.8729 26.6669 21.6454 27C22.4854 26.4796 23 25.538 23 24.3692C23 23.2075 21.7469 21.4671 20 20Z" fill="white"/>
<defs>
<linearGradient id="paint0_linear_138_1452" x1="20" y1="2" x2="20" y2="38" gradientUnits="userSpaceOnUse">
<stop stop-color="#7ABDFF"/>
<stop offset="1" stop-color="#2A86FF"/>
</linearGradient>
</defs>
</svg>
