<svg width="20" height="20" viewBox="0 0 20 20" fill="none" xmlns="http://www.w3.org/2000/svg">
<path d="M9.20844 10.0003L5.97928 5.47949C5.78483 5.20171 5.76066 4.91366 5.90677 4.61533C6.05289 4.31699 6.29927 4.16755 6.64594 4.16699C6.78483 4.16699 6.91677 4.19838 7.04177 4.26116C7.16677 4.32394 7.264 4.4106 7.33344 4.52116L11.2501 10.0003L7.33344 15.4795C7.264 15.5906 7.16677 15.6775 7.04177 15.7403C6.91677 15.8031 6.78483 15.8342 6.64594 15.8337C6.31261 15.8337 6.06955 15.6845 5.91677 15.3862C5.764 15.0878 5.78483 14.7995 5.97928 14.5212L9.20844 10.0003ZM14.1668 10.0003L10.9376 5.47949C10.7432 5.20171 10.7187 4.91366 10.8643 4.61533C11.0098 4.31699 11.2568 4.16755 11.6051 4.16699C11.744 4.16699 11.8759 4.19838 12.0009 4.26116C12.1259 4.32394 12.2232 4.4106 12.2926 4.52116L16.2084 10.0003L12.2918 15.4795C12.2223 15.5906 12.1251 15.6775 12.0001 15.7403C11.8751 15.8031 11.7432 15.8342 11.6043 15.8337C11.2709 15.8337 11.0279 15.6845 10.8751 15.3862C10.7223 15.0878 10.7432 14.7995 10.9376 14.5212L14.1668 10.0003Z" fill="#787878"/>
</svg>
