<svg width="20" height="20" viewBox="0 0 20 20" fill="none" xmlns="http://www.w3.org/2000/svg">
<path d="M9.16663 11.8337V5.00033C9.16663 4.76421 9.24663 4.56644 9.40663 4.40699C9.56663 4.24755 9.7644 4.16755 9.99996 4.16699C10.2361 4.16699 10.4341 4.24699 10.5941 4.40699C10.7541 4.56699 10.8338 4.76477 10.8333 5.00033V11.8337L13.25 9.41699C13.4027 9.26421 13.5972 9.18783 13.8333 9.18783C14.0694 9.18783 14.2638 9.26421 14.4166 9.41699C14.5694 9.56977 14.6458 9.76421 14.6458 10.0003C14.6458 10.2364 14.5694 10.4309 14.4166 10.5837L10.5833 14.417C10.4166 14.5837 10.2222 14.667 9.99996 14.667C9.77774 14.667 9.58329 14.5837 9.41663 14.417L5.58329 10.5837C5.43051 10.4309 5.35413 10.2364 5.35413 10.0003C5.35413 9.76421 5.43051 9.56977 5.58329 9.41699C5.73607 9.26421 5.93051 9.18783 6.16663 9.18783C6.40274 9.18783 6.59718 9.26421 6.74996 9.41699L9.16663 11.8337Z" fill="#787878"/>
</svg>
