<svg width="20" height="20" viewBox="0 0 20 20" fill="none" xmlns="http://www.w3.org/2000/svg">
<path d="M13.3327 15C12.0827 15 10.996 14.6042 10.0727 13.8125C9.14935 13.0208 8.59019 12.0278 8.39518 10.8333H2.49935C2.26324 10.8333 2.06546 10.7533 1.90602 10.5933C1.74657 10.4333 1.66657 10.2356 1.66602 10C1.66546 9.76444 1.74546 9.56667 1.90602 9.40667C2.06657 9.24667 2.26435 9.16667 2.49935 9.16667H8.39518C8.58963 7.97222 9.1488 6.97917 10.0727 6.1875C10.9966 5.39583 12.0832 5 13.3327 5C14.7216 5 15.9021 5.48611 16.8744 6.45833C17.8466 7.43056 18.3327 8.61111 18.3327 10C18.3327 11.3889 17.8466 12.5694 16.8744 13.5417C15.9021 14.5139 14.7216 15 13.3327 15Z" fill="#787878"/>
</svg>
