<svg width="20" height="20" viewBox="0 0 20 20" fill="none" xmlns="http://www.w3.org/2000/svg">
<path d="M6.66602 15C5.27713 15 4.09657 14.5139 3.12435 13.5417C2.15213 12.5694 1.66602 11.3889 1.66602 10C1.66602 8.61111 2.15213 7.43056 3.12435 6.45833C4.09657 5.48611 5.27713 5 6.66602 5C7.91602 5 9.00296 5.39583 9.92685 6.1875C10.8507 6.97917 11.4096 7.97222 11.6035 9.16667H17.4993C17.7355 9.16667 17.9335 9.24667 18.0935 9.40667C18.2535 9.56667 18.3332 9.76444 18.3327 10C18.3321 10.2356 18.2521 10.4336 18.0927 10.5942C17.9332 10.7547 17.7355 10.8344 17.4993 10.8333H11.6035C11.4091 12.0278 10.8499 13.0208 9.92601 13.8125C9.00213 14.6042 7.91546 15 6.66602 15Z" fill="#787878"/>
</svg>
