<svg width="48" height="48" viewBox="0 0 48 48" fill="none" xmlns="http://www.w3.org/2000/svg">
<g opacity="0.85" filter="url(#filter0_bi_39_11532)">
<circle cx="30.5353" cy="29.555" r="13.465" fill="#FCB63B"/>
</g>
<g filter="url(#filter1_bi_39_11532)">
<circle cx="30.5353" cy="29.555" r="13.465" fill="url(#paint0_linear_39_11532)"/>
<circle cx="30.5353" cy="29.555" r="13.215" stroke="url(#paint1_linear_39_11532)" stroke-width="0.5"/>
</g>
<circle cx="20.04" cy="21.04" r="16.04" fill="url(#paint2_linear_39_11532)"/>
<path d="M19.238 12.67C19.5153 11.8164 20.7228 11.8165 21.0001 12.67L22.511 17.3199C22.635 17.7016 22.9907 17.9601 23.3921 17.9601H28.2813C29.1787 17.9601 29.5519 19.1085 28.8258 19.636L24.8704 22.5098C24.5457 22.7457 24.4098 23.1639 24.5338 23.5456L26.0447 28.1955C26.322 29.0491 25.3451 29.7588 24.6191 29.2313L20.6636 26.3575C20.3389 26.1216 19.8992 26.1216 19.5745 26.3575L15.619 29.2313C14.893 29.7588 13.9161 29.0491 14.1934 28.1955L15.7043 23.5456C15.8283 23.1639 15.6924 22.7457 15.3677 22.5098L11.4122 19.636C10.6862 19.1085 11.0593 17.9601 11.9568 17.9601H16.846C17.2474 17.9601 17.6031 17.7016 17.7271 17.3199L19.238 12.67Z" fill="white"/>
<defs>
<filter id="filter0_bi_39_11532" x="15.8567" y="14.8764" width="29.3573" height="29.3572" filterUnits="userSpaceOnUse" color-interpolation-filters="sRGB">
<feFlood flood-opacity="0" result="BackgroundImageFix"/>
<feGaussianBlur in="BackgroundImageFix" stdDeviation="0.60681"/>
<feComposite in2="SourceAlpha" operator="in" result="effect1_backgroundBlur_39_11532"/>
<feBlend mode="normal" in="SourceGraphic" in2="effect1_backgroundBlur_39_11532" result="shape"/>
<feColorMatrix in="SourceAlpha" type="matrix" values="0 0 0 0 0 0 0 0 0 0 0 0 0 0 0 0 0 0 127 0" result="hardAlpha"/>
<feOffset dx="0.39216" dy="-0.39216"/>
<feGaussianBlur stdDeviation="0.39216"/>
<feComposite in2="hardAlpha" operator="arithmetic" k2="-1" k3="1"/>
<feColorMatrix type="matrix" values="0 0 0 0 1 0 0 0 0 1 0 0 0 0 1 0 0 0 0.25 0"/>
<feBlend mode="normal" in2="shape" result="effect2_innerShadow_39_11532"/>
</filter>
<filter id="filter1_bi_39_11532" x="15.7096" y="14.7293" width="29.6515" height="29.6514" filterUnits="userSpaceOnUse" color-interpolation-filters="sRGB">
<feFlood flood-opacity="0" result="BackgroundImageFix"/>
<feGaussianBlur in="BackgroundImageFix" stdDeviation="0.680362"/>
<feComposite in2="SourceAlpha" operator="in" result="effect1_backgroundBlur_39_11532"/>
<feBlend mode="normal" in="SourceGraphic" in2="effect1_backgroundBlur_39_11532" result="shape"/>
<feColorMatrix in="SourceAlpha" type="matrix" values="0 0 0 0 0 0 0 0 0 0 0 0 0 0 0 0 0 0 127 0" result="hardAlpha"/>
<feOffset dx="0.439695" dy="-0.439695"/>
<feGaussianBlur stdDeviation="0.439695"/>
<feComposite in2="hardAlpha" operator="arithmetic" k2="-1" k3="1"/>
<feColorMatrix type="matrix" values="0 0 0 0 1 0 0 0 0 1 0 0 0 0 1 0 0 0 0.25 0"/>
<feBlend mode="normal" in2="shape" result="effect2_innerShadow_39_11532"/>
</filter>
<linearGradient id="paint0_linear_39_11532" x1="30.5289" y1="16.0879" x2="30.5289" y2="43.0179" gradientUnits="userSpaceOnUse">
<stop stop-color="white" stop-opacity="0.84"/>
<stop offset="0.03" stop-color="white" stop-opacity="0.73"/>
<stop offset="0.05" stop-color="white" stop-opacity="0.65"/>
<stop offset="0.08" stop-color="white" stop-opacity="0.58"/>
<stop offset="0.11" stop-color="white" stop-opacity="0.53"/>
<stop offset="0.16" stop-color="white" stop-opacity="0.51"/>
<stop offset="0.28" stop-color="white" stop-opacity="0.5"/>
<stop offset="0.46" stop-color="#FDFDFD" stop-opacity="0.48"/>
<stop offset="0.67" stop-color="#F9F9F9" stop-opacity="0.43"/>
<stop offset="0.89" stop-color="#F3F3F3" stop-opacity="0.35"/>
<stop offset="1" stop-color="#EFEFEF" stop-opacity="0.3"/>
</linearGradient>
<linearGradient id="paint1_linear_39_11532" x1="55.3214" y1="24.8305" x2="15.7078" y2="51.2068" gradientUnits="userSpaceOnUse">
<stop stop-color="white"/>
<stop offset="1" stop-color="white" stop-opacity="0"/>
</linearGradient>
<linearGradient id="paint2_linear_39_11532" x1="2.82373" y1="1.3108" x2="45.8471" y2="13.1099" gradientUnits="userSpaceOnUse">
<stop stop-color="#FFDD80"/>
<stop offset="1" stop-color="#FF9533"/>
</linearGradient>
</defs>
</svg>
