<svg width="20" height="20" viewBox="0 0 20 20" fill="none" xmlns="http://www.w3.org/2000/svg">
<path d="M4.87496 14.2503C5.58329 13.7087 6.37496 13.2817 7.24996 12.9695C8.12496 12.6573 9.04163 12.5009 9.99996 12.5003C10.9583 12.5003 11.875 12.6567 12.75 12.9695C13.625 13.2823 14.4166 13.7092 15.125 14.2503C15.6111 13.6809 15.9897 13.035 16.2608 12.3128C16.5319 11.5906 16.6672 10.8198 16.6666 10.0003C16.6666 8.1531 16.0175 6.58005 14.7191 5.28116C13.4208 3.98227 11.8477 3.3331 9.99996 3.33366C8.15274 3.33366 6.57968 3.9831 5.28079 5.28199C3.9819 6.58088 3.33274 8.15366 3.33329 10.0003C3.33329 10.8198 3.46885 11.5906 3.73996 12.3128C4.01107 13.035 4.3894 13.6809 4.87496 14.2503ZM9.99996 10.8337C9.18051 10.8337 8.4894 10.5525 7.92663 9.99032C7.36385 9.4281 7.08274 8.73699 7.08329 7.91699C7.08329 7.09755 7.36468 6.40644 7.92746 5.84366C8.49024 5.28088 9.18107 4.99977 9.99996 5.00033C10.8194 5.00033 11.5105 5.28171 12.0733 5.84449C12.6361 6.40727 12.9172 7.0981 12.9166 7.91699C12.9166 8.73644 12.6355 9.42755 12.0733 9.99032C11.5111 10.5531 10.82 10.8342 9.99996 10.8337ZM9.99996 18.3337C8.84718 18.3337 7.76385 18.1148 6.74996 17.677C5.73607 17.2392 4.85413 16.6456 4.10413 15.8962C3.35413 15.1462 2.76051 14.2642 2.32329 13.2503C1.88607 12.2364 1.66718 11.1531 1.66663 10.0003C1.66663 8.84755 1.88551 7.76421 2.32329 6.75033C2.76107 5.73644 3.35468 4.85449 4.10413 4.10449C4.85413 3.35449 5.73607 2.76088 6.74996 2.32366C7.76385 1.88644 8.84718 1.66755 9.99996 1.66699C11.1527 1.66699 12.2361 1.88588 13.25 2.32366C14.2638 2.76144 15.1458 3.35505 15.8958 4.10449C16.6458 4.85449 17.2397 5.73644 17.6775 6.75033C18.1152 7.76421 18.3338 8.84755 18.3333 10.0003C18.3333 11.1531 18.1144 12.2364 17.6766 13.2503C17.2388 14.2642 16.6452 15.1462 15.8958 15.8962C15.1458 16.6462 14.2638 17.24 13.25 17.6778C12.2361 18.1156 11.1527 18.3342 9.99996 18.3337Z" fill="#787878"/>
</svg>
