<svg width="20" height="20" viewBox="0 0 20 20" fill="none" xmlns="http://www.w3.org/2000/svg">
<path d="M9.16663 7.33333L6.74996 9.75C6.59718 9.90278 6.40274 9.97917 6.16663 9.97917C5.93051 9.97917 5.73607 9.90278 5.58329 9.75C5.43051 9.59722 5.35413 9.40278 5.35413 9.16667C5.35413 8.93056 5.43051 8.73611 5.58329 8.58333L9.41663 4.75C9.58329 4.58333 9.77774 4.5 9.99996 4.5C10.2222 4.5 10.4166 4.58333 10.5833 4.75L14.4166 8.58333C14.5694 8.73611 14.6458 8.93056 14.6458 9.16667C14.6458 9.40278 14.5694 9.59722 14.4166 9.75C14.2638 9.90278 14.0694 9.97917 13.8333 9.97917C13.5972 9.97917 13.4027 9.90278 13.25 9.75L10.8333 7.33333V14.1667C10.8333 14.4028 10.7533 14.6008 10.5933 14.7608C10.4333 14.9208 10.2355 15.0006 9.99996 15C9.76385 15 9.56607 14.92 9.40663 14.76C9.24718 14.6 9.16718 14.4022 9.16663 14.1667V7.33333Z" fill="#787878"/>
</svg>
