<svg width="20" height="20" viewBox="0 0 20 20" fill="none" xmlns="http://www.w3.org/2000/svg">
<path d="M9.99163 1.66699C5.39163 1.66699 1.66663 5.40033 1.66663 10.0003C1.66663 14.6003 5.39163 18.3337 9.99163 18.3337C14.6 18.3337 18.3333 14.6003 18.3333 10.0003C18.3333 5.40033 14.6 1.66699 9.99163 1.66699ZM13.3333 13.3337C13.2562 13.4109 13.1646 13.4722 13.0638 13.514C12.963 13.5558 12.8549 13.5774 12.7458 13.5774C12.6367 13.5774 12.5286 13.5558 12.4278 13.514C12.327 13.4722 12.2354 13.4109 12.1583 13.3337L9.41663 10.592C9.33789 10.5148 9.27524 10.4228 9.23233 10.3212C9.18942 10.2197 9.16708 10.1106 9.16663 10.0003V6.66699C9.16663 6.20866 9.54163 5.83366 9.99996 5.83366C10.4583 5.83366 10.8333 6.20866 10.8333 6.66699V9.65866L13.3333 12.1587C13.6583 12.4837 13.6583 13.0087 13.3333 13.3337Z" fill="#787878"/>
</svg>
