<svg width="20" height="20" viewBox="0 0 20 20" fill="none" xmlns="http://www.w3.org/2000/svg">
<path d="M9.99935 12.5003C10.6938 12.5003 11.2841 12.2573 11.7702 11.7712C12.2563 11.285 12.4993 10.6948 12.4993 10.0003C12.4993 9.30588 12.2563 8.7156 11.7702 8.22949C11.2841 7.74338 10.6938 7.50033 9.99935 7.50033C9.3049 7.50033 8.71463 7.74338 8.22852 8.22949C7.74241 8.7156 7.49935 9.30588 7.49935 10.0003C7.49935 10.6948 7.74241 11.285 8.22852 11.7712C8.71463 12.2573 9.3049 12.5003 9.99935 12.5003ZM9.99935 18.3337C8.84657 18.3337 7.76324 18.1148 6.74935 17.677C5.73546 17.2392 4.85352 16.6456 4.10352 15.8962C3.35352 15.1467 2.75991 14.2648 2.32268 13.2503C1.88546 12.2359 1.66657 11.1525 1.66602 10.0003C1.66546 8.8481 1.88435 7.76477 2.32268 6.75033C2.76102 5.73588 3.35463 4.85394 4.10352 4.10449C4.85241 3.35505 5.73435 2.76144 6.74935 2.32366C7.76435 1.88588 8.84768 1.66699 9.99935 1.66699C11.151 1.66699 12.2343 1.88588 13.2493 2.32366C14.2643 2.76144 15.1463 3.35505 15.8952 4.10449C16.6441 4.85394 17.238 5.73588 17.6768 6.75033C18.1157 7.76477 18.3344 8.8481 18.3327 10.0003C18.331 11.1525 18.1121 12.2359 17.676 13.2503C17.2399 14.2648 16.6463 15.1467 15.8952 15.8962C15.1441 16.6456 14.2621 17.2395 13.2493 17.6778C12.2366 18.1162 11.1532 18.3348 9.99935 18.3337Z" fill="#787878"/>
</svg>
