<svg width="20" height="20" viewBox="0 0 20 20" fill="none" xmlns="http://www.w3.org/2000/svg">
<path fill-rule="evenodd" clip-rule="evenodd" d="M6.66683 18.3337C5.75016 18.3337 4.96544 18.0073 4.31266 17.3545C3.65989 16.7017 3.3335 15.917 3.3335 15.0003V6.66699C3.3335 5.75033 3.65989 4.9656 4.31266 4.31283C4.96544 3.66005 5.75016 3.33366 6.66683 3.33366H7.50016V2.50033C7.50016 2.26421 7.58016 2.06644 7.74016 1.90699C7.90016 1.74755 8.09794 1.66755 8.3335 1.66699C8.56961 1.66699 8.76766 1.74699 8.92766 1.90699C9.08766 2.06699 9.16739 2.26477 9.16683 2.50033V3.33366H10.8335V2.50033C10.8335 2.26421 10.9135 2.06644 11.0735 1.90699C11.2335 1.74755 11.4313 1.66755 11.6668 1.66699C11.9029 1.66699 12.101 1.74699 12.261 1.90699C12.421 2.06699 12.5007 2.26477 12.5002 2.50033V3.33366H13.3335C14.2502 3.33366 15.0349 3.66005 15.6877 4.31283C16.3404 4.9656 16.6668 5.75033 16.6668 6.66699V15.0003C16.6668 15.917 16.3404 16.7017 15.6877 17.3545C15.0349 18.0073 14.2502 18.3337 13.3335 18.3337H6.66683ZM7.50016 8.33366H12.5002C12.7363 8.33366 12.9343 8.25366 13.0943 8.09366C13.2543 7.93366 13.3341 7.73588 13.3335 7.50033C13.3335 7.26421 13.2535 7.06644 13.0935 6.90699C12.9335 6.74755 12.7357 6.66755 12.5002 6.66699H7.50016C7.26405 6.66699 7.06627 6.74699 6.90683 6.90699C6.74739 7.06699 6.66739 7.26477 6.66683 7.50033C6.66683 7.73644 6.74683 7.93449 6.90683 8.09449C7.06683 8.25449 7.26461 8.33421 7.50016 8.33366ZM10 10C8.24531 11.4729 7 13.2118 7 14.3692C7 15.0867 7.19392 15.7185 7.53797 16.2199C7.51305 16.0843 7.50016 15.9426 7.50016 15.7957C7.50016 15 8.43414 13.8045 9.75016 12.7919C11.0603 13.8005 12.0002 14.997 12.0002 15.7957C12.0002 16.2571 11.8729 16.6669 11.6454 17C12.4854 16.4796 13 15.538 13 14.3692C13 13.2075 11.7469 11.4671 10 10Z" fill="#787878"/>
</svg>
