<svg width="20" height="20" viewBox="0 0 20 20" fill="none" xmlns="http://www.w3.org/2000/svg">
<path d="M0.833984 16.6664V14.333C0.833984 13.8608 0.955651 13.4269 1.19898 13.0314C1.44232 12.6358 1.7651 12.3336 2.16732 12.1247C3.02843 11.6941 3.90343 11.3714 4.79232 11.1564C5.68121 10.9414 6.58398 10.8336 7.50065 10.833C8.41732 10.8325 9.3201 10.9403 10.209 11.1564C11.0979 11.3725 11.9729 11.6953 12.834 12.1247C13.2368 12.333 13.5598 12.6353 13.8031 13.0314C14.0465 13.4275 14.1679 13.8614 14.1673 14.333V16.6664H0.833984ZM15.834 16.6664V14.1664C15.834 13.5553 15.664 12.9683 15.324 12.4055C14.984 11.8428 14.5012 11.3603 13.8756 10.958C14.584 11.0414 15.2506 11.1839 15.8756 11.3855C16.5006 11.5872 17.084 11.8336 17.6256 12.1247C18.1256 12.4025 18.5076 12.7114 18.7715 13.0514C19.0354 13.3914 19.1673 13.763 19.1673 14.1664V16.6664H15.834ZM7.50065 9.9997C6.58398 9.9997 5.79926 9.67331 5.14648 9.02053C4.49371 8.36775 4.16732 7.58303 4.16732 6.66636C4.16732 5.7497 4.49371 4.96497 5.14648 4.3122C5.79926 3.65942 6.58398 3.33303 7.50065 3.33303C8.41732 3.33303 9.20204 3.65942 9.85482 4.3122C10.5076 4.96497 10.834 5.7497 10.834 6.66636C10.834 7.58303 10.5076 8.36775 9.85482 9.02053C9.20204 9.67331 8.41732 9.9997 7.50065 9.9997ZM15.834 6.66636C15.834 7.58303 15.5076 8.36775 14.8548 9.02053C14.202 9.67331 13.4173 9.9997 12.5007 9.9997C12.3479 9.9997 12.1534 9.98247 11.9173 9.94803C11.6812 9.91358 11.4868 9.87525 11.334 9.83303C11.709 9.38858 11.9973 8.89553 12.199 8.35386C12.4007 7.8122 12.5012 7.2497 12.5007 6.66636C12.5001 6.08303 12.3995 5.52053 12.199 4.97886C11.9984 4.4372 11.7101 3.94414 11.334 3.4997C11.5284 3.43025 11.7229 3.38497 11.9173 3.36386C12.1118 3.34275 12.3062 3.33247 12.5007 3.33303C13.4173 3.33303 14.202 3.65942 14.8548 4.3122C15.5076 4.96497 15.834 5.7497 15.834 6.66636Z" fill="#787878"/>
</svg>
